Patient4_TMGait_0pt8_01_right_51_EMG.mot
version=1
nRows=26
nColumns=33
inDegrees=no
endheader
time	1LAddLong	2LGlutMax	3LGlutMed	4LIliopsoas	5LSemiMemb	6LBicFemLong	7LRecFem	8LVastMed	9LVastLat	10LGasMed	11LTibAnt	12lTibPost	13LPeroneusLong	14LSol	15LExtDigLong	16LFlexDigLong	17RAddLong	18RGlutMax	19RGlutMed	20RIliopsoas	21RSemiMemb	22RBicFemLong	23RRecFem	24RVastMed	25RVastLat	26RGasMed	27RTibAnt	28RTibPost	29RPeroneusLong	30RSol	31RExtDigLong	32RFlexDigLong
58.23	-0.04837	0.37918	0.009155	-0.003204	-0.031433	-0.062256	0.096283	0.001678	-0.1561	0.014648	-0.20737	-0.013275	0.071716	-0.005493	-0.077515	-0.031891	0.008087	0.32562	-0.28488	-0.031433	0.54031	0.20035	-0.30533	-0.060577	0.032196	0.010834	-0.019073	0.007629	0.16846	0.077057	-0.003204	0.001678
58.231	-0.033112	0.30106	-0.01709	0.003357	-0.10208	-0.024261	0.11261	0.020905	-0.10178	0.014191	-0.41016	-0.011444	0.1149	-0.049438	-0.005646	-0.017242	0.02121	0.29877	-0.10696	-0.036926	0.59662	0.20538	-0.29724	-0.061493	0.041046	-0.004272	0.01236	0.001831	0.39978	0.16632	-0.002136	0
58.232	-0.024567	0.21469	0.000305	0.009613	-0.11581	-0.00412	0.068665	0.022888	-0.01297	0.003052	-0.19501	-0.013123	0.1329	-0.059204	0.039063	-0.02121	0.016022	0.28244	-0.24155	0.00946	0.61981	0.10162	-0.30289	-0.035706	0.035706	-0.016479	0.058136	0.000305	0.49545	0.27344	-0.000916	-0.011292
58.233	-0.019073	0.12436	0.028992	0.013733	-0.083771	0.029602	0.05661	0.018616	0.10513	0.003204	-0.18707	-0.007477	0.15869	-0.04776	-0.014954	-0.024261	0.006104	0.2655	-0.37918	0.070343	0.72281	-0.089417	-0.26489	-0.075378	0.020905	-0.016479	0.033417	-0.001678	0.37201	0.20752	-0.002136	-0.009613
58.234	0.011292	0.12009	-0.001221	0.012512	0.072937	-0.15305	0.003967	0.002136	0.10574	-0.009155	-0.18738	-0.011292	0.1709	-0.083008	0.006104	-0.018311	0.006409	0.3035	-0.63828	0.063477	0.73334	-0.19821	-0.23361	-0.088196	0.016327	-0.00412	-0.033264	-0.002136	-0.030212	0.10956	-0.00061	-0.012512
58.235	0.039063	0.072937	0.016785	-0.00061	0.17242	-0.11215	0.001068	-0.000916	-0.036774	-0.004272	-0.14679	-0.002899	0.14847	-0.08316	0.074158	-0.028076	0.010834	0.29404	-0.62286	0.011139	0.69946	-0.19257	-0.22659	-0.096283	0.021362	-0.009308	-0.022583	-0.002899	-0.35904	0.14358	-0.001526	-0.017395
58.236	0.042267	0.030823	0.002136	-0.010071	0.23056	-0.10559	-0.057373	-0.003052	-0.15945	-0.008545	-0.059052	-0.004272	0.12329	0.00473	0.13458	-0.033875	-0.002289	0.34531	0.052185	-0.014343	0.62118	-0.18372	-0.21988	-0.051727	0.007935	-0.00473	-0.013733	-0.007019	-0.20325	0.11231	-0.000305	-0.014343
58.237	0.013275	-0.016327	0.003204	-0.002747	0.17899	0.036469	-0.08255	0.01709	-0.24368	-0.009613	-0.037537	0.001221	0.098267	0.028839	0.1976	-0.029449	-0.005493	0.27557	-0.11673	-0.035858	0.61844	-0.21133	-0.19913	-0.048981	0.000458	0.010834	0.12589	-0.006104	-0.13229	0.027466	-0.001068	-0.021667
58.238	-0.025177	0.057068	-0.020752	-0.006714	0.063477	-0.038452	-0.014648	0.013733	-0.28366	0.019684	-0.033417	-0.000153	0.10513	0.017548	0.089417	-0.019684	0.006104	0.30487	-0.64133	-0.055847	0.62057	-0.27756	-0.20142	-0.033569	-0.029297	0.020752	0.19806	-0.010071	-0.29465	-0.004578	0.000916	-0.019379
58.239	-0.041962	0.07843	-0.006714	0.027466	-0.041199	-0.37872	0.037537	0.006409	-0.18707	0.038452	-0.032654	0.007629	0.17151	0.047913	-0.00351	-0.018005	0.019836	0.32425	-0.81986	-0.078735	0.74844	-0.22247	-0.17822	-0.080414	-0.028992	0.008545	0.24979	-0.007172	-0.15991	-0.000153	-0.005035	-0.025787
58.24	-0.027313	0.061188	0.007477	0.018921	-0.10559	-0.22995	0.005493	0.012054	-0.11276	0.04364	0.002289	0.025024	0.19302	0.084534	-0.025635	-0.014954	0.014496	0.4158	0.14389	-0.07019	0.61798	-0.036316	-0.1619	-0.103	-0.030823	-0.007172	0.25223	-0.008698	-0.49454	0.061798	0.000153	-0.022278
58.241	-0.031281	-0.027771	-0.005188	0.018921	-0.1059	-0.024414	-0.060425	0.013885	-0.073853	0.046692	0.053558	0.007782	0.068359	0.068817	-0.042877	-0.025177	0.026855	0.33875	0.3154	-0.017242	0.48141	0.016174	-0.16861	-0.13275	-0.03479	-0.007477	0.050049	-0.004272	-0.42557	0.002441	-0.001526	-0.015564
58.242	-0.011444	-0.10056	0.08194	-0.012512	-0.001221	-0.11337	-0.038605	0.035706	-0.032349	0.034027	0.06134	0.014801	0.010986	0.05127	-0.027466	-0.017242	0.028229	0.32471	-0.016632	-0.029907	0.50369	0.054016	-0.12772	-0.13489	-0.042725	-0.0177	-0.10696	-0.009155	-0.16235	-0.027313	0	-0.018463
58.243	-0.019684	-0.15503	0.081329	-0.015106	0.055237	0.05661	0.028992	0.034637	-0.013733	0.030518	0.031281	0.017548	-0.004425	0.005493	0.079498	-0.016174	0.027313	0.29495	-0.44357	-0.013885	0.56839	-0.006714	-0.12009	-0.11932	-0.042114	-0.011139	-0.038605	-0.009155	0.53925	0.11505	-0.002747	-0.013428
58.244	0.00412	-0.18036	0.12161	-0.012512	0.006104	0.37308	0.071411	0.022736	-0.018463	0.037079	0.038452	0.020905	-0.032196	0.032654	0.03418	-0.020905	0.035095	0.26672	-0.47043	0.016022	0.49194	-0.026245	-0.17792	-0.11536	-0.021667	0.001221	-0.047607	0.002899	0.9201	0.1442	-0.000458	-0.014648
58.245	-0.055847	-0.17914	0.068207	0.007935	-0.044098	0.46081	-0.03067	0.026398	0.048828	0.014191	0.09903	0.027771	0.011444	0.039825	0.10193	-0.011902	0.03418	0.27741	-0.26779	-0.00473	0.44998	-0.009308	-0.159	-0.13077	-0.016937	0.001526	-0.039673	0.002594	0.31204	0.010986	0.007019	-0.011749
58.246	-0.023956	-0.22995	0.059814	0.0177	-0.059204	0.42313	0.022125	0.021973	0.094452	0.024414	0.14206	0.036774	0.037689	0.042877	-0.036011	-0.002441	0.040588	0.20493	-0.071259	-0.081024	0.52765	-0.011139	-0.18036	-0.088959	-0.010986	-0.001831	-0.020294	-0.009918	-0.39871	-0.1239	-0.002441	-0.013428
58.247	-0.006714	-0.33341	0.040283	-0.001068	-0.089569	0.19073	0.068054	0.009766	0.009308	0.037079	0.15671	0.044403	0.039673	0.045929	0.12344	-0.005188	0.046539	0.23071	0.14755	-0.10346	0.54001	-0.039368	-0.1738	-0.13611	-0.006561	-0.000305	-0.003662	-0.009003	0.13687	-0.2034	-0.001678	-0.011902
58.248	0.015717	-0.37201	0.050049	0.027008	-0.081329	-0.11887	0.046539	-0.010986	-0.03006	0.029907	0.14328	0.046844	0.060272	0.067444	0.18463	0.003052	0.04303	0.18921	-0.016174	-0.047607	0.43854	-0.052338	-0.19638	-0.14191	-0.001526	0.008392	0.075378	-0.007935	0.060577	-0.31677	-0.003357	-0.015869
58.249	0.023041	-0.45151	0.096283	0.027008	-0.15549	-0.57922	0.025177	-0.021362	-0.072174	0.031586	0.088806	0.056	0.09491	0.035706	0.15747	0.023499	0.015259	0.17944	-0.098572	-0.022736	0.38879	-0.057068	-0.17288	-0.096741	0.003662	0.03067	0.094757	-0.013123	-0.30228	-0.51865	0.000153	-0.017548
58.25	0.042419	-0.55054	0.087128	0.019836	-0.049133	-0.72555	0.006256	-0.0177	-0.061951	0.030365	0.087891	0.060577	0.07431	0.058136	0.2684	0.014801	-0.007324	0.14221	-0.35416	0.027313	0.37842	-0.027466	-0.13382	-0.044098	-0.010834	0.018463	0.037231	-0.012054	-0.61081	-0.57907	-0.002136	-0.021515
58.251	0.078583	-0.55344	0.058441	0.009613	0.18036	-0.54504	-0.009918	-0.031128	-0.002289	0.023041	-0.074158	0.069275	0.095367	0.083771	0.34744	0.01709	-0.000458	0.12985	-0.30395	0.089417	0.38574	0.004272	-0.12573	-0.056763	-0.019226	0.001373	0.073547	0.003967	-0.70145	-0.34164	-0.001526	-0.020142
58.252	0.092773	-0.51224	-0.016785	0.007935	0.27634	-0.45624	0.046539	-0.033722	0.026398	0.018616	-0.17288	0.072784	0.13229	0.029144	0.23117	-0.015564	0.006256	0.13153	-0.3006	0.092773	0.38254	-0.00824	-0.093079	-0.063324	-0.015411	0.008392	0.077667	0	-0.15091	0.39932	-0.003662	-0.026093
58.253	0.064087	-0.49164	-0.016632	-0.000153	0.21652	-0.27832	0.12146	-0.039368	0.00473	-0.007172	-0.12589	0.073547	0.16098	0.017548	-0.40894	-0.036011	0.007172	0.15243	-0.33783	0.042267	0.36987	-0.018005	-0.13382	-0.071716	-0.000763	0.008545	0.033112	0	0.096741	0.32013	-0.001831	-0.023346
58.254	0.036926	-0.52597	0.054016	0.002899	0.13748	-0.11688	0.13962	-0.029297	0.014954	-0.002289	-0.077057	0.0737	0.16113	0.044708	-0.34347	-0.037537	0.002441	0.16388	-0.12161	0.003967	0.3215	-0.040436	-0.08667	-0.10284	-0.002136	0.016174	-0.005493	-0.013123	0.33859	-0.20416	-0.002289	-0.020294
58.255	0.03006	-0.52582	0.076294	0.001068	0.11154	-0.11063	0.083771	-0.01297	0.15411	0.007172	0.072632	0.072784	0.11566	0.041656	-0.50522	-0.064697	-0.009155	0.019226	-0.19547	-0.005188	0.30563	-0.001831	-0.098572	-0.12466	0.010223	0.025024	0.01709	-0.037842	0.31799	-0.62515	-0.005798	-0.017853
